<?xml version="1.0" encoding="UTF-8" standalone="no"?>
<!-- Created with Inkscape (http://www.inkscape.org/) -->

<svg
   xmlns:dc="http://purl.org/dc/elements/1.1/"
   xmlns:cc="http://creativecommons.org/ns#"
   xmlns:rdf="http://www.w3.org/1999/02/22-rdf-syntax-ns#"
   xmlns:svg="http://www.w3.org/2000/svg"
   xmlns="http://www.w3.org/2000/svg"
   xmlns:sodipodi="http://sodipodi.sourceforge.net/DTD/sodipodi-0.dtd"
   xmlns:inkscape="http://www.inkscape.org/namespaces/inkscape"
   width="256"
   height="256"
   viewBox="0 0 67.733332 67.733335"
   version="1.1"
   id="svg8"
   inkscape:version="0.92.1 r"
   sodipodi:docname="server_gen.svg">
  <defs
     id="defs2" />
  <sodipodi:namedview
     id="base"
     pagecolor="#ffffff"
     bordercolor="#666666"
     borderopacity="1.0"
     inkscape:pageopacity="0.0"
     inkscape:pageshadow="2"
     inkscape:zoom="0.98994949"
     inkscape:cx="173.94883"
     inkscape:cy="30.370892"
     inkscape:document-units="mm"
     inkscape:current-layer="layer1"
     showgrid="false"
     units="px"
     inkscape:window-width="1916"
     inkscape:window-height="1046"
     inkscape:window-x="1920"
     inkscape:window-y="16"
     inkscape:window-maximized="0" />
  <metadata
     id="metadata5">
    <rdf:RDF>
      <cc:Work
         rdf:about="">
        <dc:format>image/svg+xml</dc:format>
        <dc:type
           rdf:resource="http://purl.org/dc/dcmitype/StillImage" />
        <dc:title />
      </cc:Work>
    </rdf:RDF>
  </metadata>
  <g
     inkscape:label="Layer 1"
     inkscape:groupmode="layer"
     id="layer1"
     transform="translate(0,-229.26665)">
    <path
       style="fill:#808080;stroke-width:0.11403438"
       d="m 31.676931,287.38017 c -0.21388,-0.21388 -0.228071,-0.38012 -0.228071,-2.67154 v -2.44346 l 0.300466,-0.23634 c 0.210456,-0.16555 0.466658,-0.23635 0.855256,-0.23635 h 0.554795 v -0.89078 c 0,-1.19708 0.166118,-1.38991 1.19736,-1.38991 1.031245,0 1.197361,0.19283 1.197361,1.38991 v 0.89078 h 0.554793 c 0.388601,0 0.644804,0.0708 0.85526,0.23635 l 0.300464,0.23634 v 2.44346 c 0,2.29142 -0.01419,2.45766 -0.22807,2.67154 -0.213925,0.21392 -0.380112,0.22806 -2.679808,0.22806 -2.299694,0 -2.465882,-0.0141 -2.679806,-0.22806 z m -13.837503,-1.69099 c -0.134743,-0.14889 -0.188728,-0.41992 -0.188728,-0.9475 0,-1.28251 -0.489318,-1.17679 5.615943,-1.21342 5.228541,-0.0313 5.296023,-0.0289 5.59694,0.20784 0.273654,0.21525 0.304592,0.31403 0.304592,0.97253 0,1.27831 0.435081,1.18909 -5.79808,1.18909 -5.030365,0 -5.352949,-0.0121 -5.530667,-0.20854 z m 21.959319,0.031 c -0.220093,-0.15415 -0.253445,-0.28063 -0.253445,-0.96115 0,-0.83296 0.126819,-1.08448 0.606656,-1.20316 0.136731,-0.0338 2.574793,-0.0468 5.417919,-0.0287 5.9722,0.0379 5.492899,-0.0698 5.492899,1.23428 0,1.22416 0.442202,1.13622 -5.713835,1.13622 -4.609416,0 -5.329643,-0.023 -5.550194,-0.17751 z m -25.910368,-8.67023 c -0.569034,-0.24748 -0.904455,-0.5918 -1.212151,-1.24427 -0.265489,-0.56299 -0.268896,-0.61774 -0.269995,-4.34137 l -0.0013,-3.77119 0.313595,-0.61342 c 0.172478,-0.33737 0.510792,-0.76993 0.751808,-0.96123 l 0.438213,-0.34782 h 20.448006 20.448002 l 0.438217,0.34782 c 0.241016,0.1913 0.579329,0.62386 0.751808,0.96123 l 0.313591,0.61342 v 3.77925 3.77925 l -0.313591,0.61843 c -0.205398,0.40504 -0.484198,0.7367 -0.808053,0.96123 l -0.494459,0.34281 -20.202783,0.0245 c -17.856312,0.0217 -20.249045,0.004 -20.60109,-0.14869 z m 33.137581,-4.76794 c 0.2768,-0.2768 0.387715,-0.49046 0.387715,-0.74688 0,-0.53428 -0.305048,-1.02821 -0.749759,-1.21402 -0.482847,-0.20175 -0.914297,-0.11298 -1.329948,0.27364 -0.816839,0.75979 -0.270406,2.07498 0.862106,2.07498 0.350811,0 0.522274,-0.0801 0.829886,-0.38772 z m 4.188561,0.15446 c 0.713193,-0.56099 0.55712,-1.6693 -0.293609,-2.08501 -1.386287,-0.6774 -2.409364,1.44138 -1.055499,2.18591 0.371137,0.2041 1.023381,0.15532 1.349108,-0.1009 z m -8.190751,-0.67948 c 0.170891,-0.18883 0.184289,-0.27798 0.07713,-0.51316 l -0.129683,-0.28462 H 39.66579 c -3.151274,0 -3.310936,0.0103 -3.423477,0.22057 -0.160377,0.29968 -0.148985,0.41641 0.06115,0.62654 0.154302,0.1543 0.619163,0.17921 3.346338,0.17921 3.024461,0 3.176461,-0.0103 3.373963,-0.22854 z m -28.944194,-8.4886 c -0.694179,-0.24863 -1.108149,-0.65156 -1.451573,-1.41288 -0.2066,-0.458 -0.222885,-0.76768 -0.222885,-4.23832 0,-3.40958 0.0191,-3.78839 0.213854,-4.23833 0.278887,-0.64436 0.69638,-1.07975 1.296628,-1.35221 0.473424,-0.2149 0.966282,-0.2202 20.441137,-0.2202 19.474857,0 19.967715,0.005 20.44114,0.2202 0.600247,0.27246 1.01774,0.70785 1.296628,1.35221 0.194739,0.44994 0.213853,0.82875 0.213853,4.23833 0,4.13231 -0.03087,4.33975 -0.752322,5.05661 -0.768316,0.76341 1.079336,0.6996 -21.028247,0.72628 -16.679714,0.0202 -20.085516,-0.002 -20.448213,-0.13169 z m 32.964873,-4.77401 c 0.182845,-0.18284 0.299889,-0.45503 0.336911,-0.78349 0.04801,-0.42595 0.01,-0.55889 -0.247436,-0.8648 -0.592593,-0.70426 -1.685449,-0.57136 -2.078437,0.25274 -0.579165,1.21452 1.036421,2.3481 1.988962,1.39555 z m 4.020305,0.18683 c 1.112193,-0.657 0.616345,-2.3184 -0.691927,-2.3184 -0.547955,0 -1.134603,0.63473 -1.134603,1.2276 0,0.98288 0.999128,1.57956 1.82653,1.0908 z m -8.098419,-0.72192 c 0.274537,-0.27454 0.278998,-0.33268 0.05055,-0.65883 -0.176234,-0.25161 -0.200536,-0.25345 -3.361385,-0.25345 h -3.183867 l -0.186795,0.28509 c -0.173038,0.26409 -0.173038,0.30608 0,0.57018 l 0.186795,0.28508 h 3.133315 c 2.981272,0 3.144385,-0.0111 3.361388,-0.22807 z m -29.077956,-8.6202 c -0.568685,-0.24661 -0.904319,-0.591 -1.212151,-1.24378 -0.265534,-0.56307 -0.26888,-0.61701 -0.26888,-4.3333 0,-3.7163 0.0033,-3.77023 0.26888,-4.33331 0.313039,-0.66381 0.649223,-1.00303 1.237739,-1.24893 0.375823,-0.15703 2.630478,-0.17649 20.44277,-0.17649 17.812294,0 20.066949,0.0194 20.442772,0.17649 0.588516,0.2459 0.9247,0.58512 1.237739,1.24893 0.265535,0.56308 0.26888,0.61701 0.26888,4.33331 0,3.71629 -0.0034,3.77023 -0.26888,4.3333 -0.313039,0.66382 -0.649223,1.00304 -1.237739,1.24894 -0.375972,0.15709 -2.62624,0.17601 -20.467618,0.17203 -17.646458,-0.004 -20.092869,-0.0251 -20.443512,-0.17719 z m 33.027305,-4.58182 c 0.312276,-0.25295 0.497991,-0.61932 0.497991,-0.9824 0,-1.07734 -1.260366,-1.60922 -2.079329,-0.87747 -0.31973,0.28568 -0.37241,0.40799 -0.37241,0.86461 0,0.45663 0.05268,0.57893 0.37241,0.86462 0.441316,0.39431 1.18045,0.45538 1.581338,0.13064 z m 4.247799,0.0162 c 0.404399,-0.28324 0.596743,-0.83983 0.460612,-1.33286 -0.246929,-0.8943 -1.343047,-1.18836 -2.031706,-0.54507 -0.298528,0.27887 -0.354165,0.41461 -0.354165,0.86404 0,0.7404 0.445427,1.19985 1.163217,1.19985 0.274508,0 0.615272,-0.0832 0.762042,-0.18596 z m -8.087127,-0.71881 c 0.160379,-0.29966 0.148984,-0.4164 -0.06115,-0.62654 -0.269372,-0.26936 -6.44237,-0.26936 -6.711738,0 -0.210136,0.21014 -0.221528,0.32688 -0.06115,0.62654 0.112532,0.21028 0.272132,0.22058 3.417019,0.22058 3.144888,0 3.304487,-0.0103 3.417019,-0.22058 z"
       id="path21"
       inkscape:connector-curvature="0" />
  </g>
</svg>
