<?xml version="1.0" encoding="UTF-8" standalone="no"?>
<!-- Created with Inkscape (http://www.inkscape.org/) -->

<svg
   xmlns:dc="http://purl.org/dc/elements/1.1/"
   xmlns:cc="http://creativecommons.org/ns#"
   xmlns:rdf="http://www.w3.org/1999/02/22-rdf-syntax-ns#"
   xmlns:svg="http://www.w3.org/2000/svg"
   xmlns="http://www.w3.org/2000/svg"
   xmlns:sodipodi="http://sodipodi.sourceforge.net/DTD/sodipodi-0.dtd"
   xmlns:inkscape="http://www.inkscape.org/namespaces/inkscape"
   width="256"
   height="256"
   viewBox="0 0 67.733332 67.733335"
   version="1.1"
   id="svg8"
   inkscape:version="0.92.1 r"
   sodipodi:docname="server_gen.svg">
  <defs
     id="defs2" />
  <sodipodi:namedview
     id="base"
     pagecolor="#ffffff"
     bordercolor="#666666"
     borderopacity="1.0"
     inkscape:pageopacity="0.0"
     inkscape:pageshadow="2"
     inkscape:zoom="0.98994949"
     inkscape:cx="170.91837"
     inkscape:cy="30.370892"
     inkscape:document-units="mm"
     inkscape:current-layer="layer1"
     showgrid="false"
     units="px"
     inkscape:window-width="1916"
     inkscape:window-height="1046"
     inkscape:window-x="1920"
     inkscape:window-y="16"
     inkscape:window-maximized="0" />
  <metadata
     id="metadata5">
    <rdf:RDF>
      <cc:Work
         rdf:about="">
        <dc:format>image/svg+xml</dc:format>
        <dc:type
           rdf:resource="http://purl.org/dc/dcmitype/StillImage" />
        <dc:title></dc:title>
      </cc:Work>
    </rdf:RDF>
  </metadata>
  <g
     inkscape:label="Layer 1"
     inkscape:groupmode="layer"
     id="layer1"
     transform="translate(0,-229.26665)">
    <path
       style="fill:#808080;stroke-width:0.13902572"
       d="m 31.356925,292.7658 c -0.260753,-0.26075 -0.278054,-0.46342 -0.278054,-3.25702 v -2.97896 l 0.366314,-0.28814 c 0.256579,-0.20183 0.56893,-0.28814 1.042691,-0.28814 h 0.676382 v -1.086 c 0,-1.45943 0.202523,-1.69452 1.459768,-1.69452 1.257249,0 1.459771,0.23509 1.459771,1.69452 v 1.086 h 0.676379 c 0.473765,0 0.786116,0.0863 1.042695,0.28814 l 0.366313,0.28814 v 2.97896 c 0,2.7936 -0.0173,2.99627 -0.278053,3.25702 -0.260808,0.26081 -0.463416,0.27805 -3.267105,0.27805 -2.803685,0 -3.006294,-0.0172 -3.267101,-0.27805 z m -16.870077,-2.06158 c -0.164272,-0.18152 -0.230088,-0.51194 -0.230088,-1.15515 0,-1.56358 -0.596556,-1.43469 6.846711,-1.47935 6.374408,-0.0382 6.456678,-0.0352 6.823543,0.25339 0.333627,0.26243 0.371346,0.38285 0.371346,1.18567 0,1.55846 0.530431,1.44968 -7.068765,1.44968 -6.1328,0 -6.526081,-0.0148 -6.742747,-0.25424 z m 26.771838,0.0378 c -0.268327,-0.18794 -0.308989,-0.34214 -0.308989,-1.17179 0,-1.01552 0.154612,-1.32216 0.739609,-1.46684 0.166696,-0.0412 3.139074,-0.057 6.605289,-0.035 7.281044,0.0462 6.696701,-0.0851 6.696701,1.50479 0,1.49244 0.539113,1.38523 -6.966057,1.38523 -5.619598,0 -6.497666,-0.0281 -6.766553,-0.21642 z M 9.6699029,280.17165 C 8.976161,279.86993 8.567231,279.45016 8.1921019,278.65469 7.8684291,277.96832 7.8642754,277.90157 7.8629355,273.36188 l -0.00158,-4.59767 0.3823212,-0.74785 c 0.2102778,-0.41131 0.6227349,-0.93866 0.9165714,-1.17189 l 0.5342502,-0.42405 H 34.623809 59.553116 l 0.534255,0.42405 c 0.293836,0.23323 0.706293,0.76058 0.916571,1.17189 l 0.382317,0.74785 v 4.6075 4.6075 l -0.382317,0.75396 c -0.250412,0.49381 -0.590313,0.89815 -0.985143,1.17189 l -0.602822,0.41794 -24.630347,0.0299 c -21.769631,0.0264 -24.686746,0.005 -25.1159439,-0.18127 z m 40.3998841,-5.81286 c 0.337462,-0.33746 0.472685,-0.59795 0.472685,-0.91057 0,-0.65136 -0.371901,-1.25354 -0.914073,-1.48008 -0.588666,-0.24596 -1.114671,-0.13773 -1.621414,0.33362 -0.995854,0.9263 -0.329667,2.52972 1.051042,2.52972 0.427693,0 0.636733,-0.0977 1.01176,-0.47269 z m 5.10651,0.18831 c 0.869493,-0.68394 0.679216,-2.03514 -0.357955,-2.54195 -1.6901,-0.82586 -2.937391,1.75726 -1.286818,2.66496 0.452473,0.24883 1.247661,0.18936 1.644773,-0.12301 z m -9.985804,-0.82839 c 0.208342,-0.23022 0.224677,-0.3389 0.09404,-0.62562 l -0.158104,-0.347 h -4.029832 c -3.841895,0 -4.036548,0.0125 -4.173753,0.26891 -0.195524,0.36535 -0.181636,0.50767 0.07455,0.76385 0.188119,0.18812 0.754857,0.21848 4.079709,0.21848 3.68729,0 3.872602,-0.0126 4.113387,-0.27862 z M 9.9030024,263.36978 c -0.8463133,-0.30312 -1.3510069,-0.79435 -1.7696945,-1.72252 -0.2518779,-0.55837 -0.2717321,-0.93592 -0.2717321,-5.16718 0,-4.15681 0.023291,-4.61864 0.2607212,-5.16718 0.3400079,-0.78558 0.848997,-1.31639 1.5807921,-1.64856 0.5771779,-0.26199 1.1780489,-0.26846 24.9209369,-0.26846 23.742891,0 24.343762,0.006 24.920941,0.26846 0.731795,0.33217 1.240784,0.86298 1.580792,1.64856 0.237418,0.54854 0.260721,1.01037 0.260721,5.16718 0,5.03794 -0.03764,5.29084 -0.917198,6.1648 -0.936698,0.93072 1.315878,0.85292 -25.636716,0.88545 -20.335176,0.0246 -24.48738,-0.002 -24.9295636,-0.16055 z m 40.1893256,-5.82026 c 0.222917,-0.22292 0.365612,-0.55476 0.410747,-0.9552 0.05853,-0.5193 0.01214,-0.68138 -0.301663,-1.05433 -0.722463,-0.8586 -2.054825,-0.69658 -2.533939,0.30813 -0.706092,1.48069 1.263559,2.8627 2.424855,1.7014 z m 4.90138,0.22777 c 1.355937,-0.80098 0.75142,-2.82649 -0.843567,-2.82649 -0.668043,0 -1.383259,0.77383 -1.383259,1.49663 0,1.19829 1.218093,1.92573 2.226826,1.32986 z m -9.873237,-0.88013 c 0.334703,-0.33471 0.340142,-0.40559 0.06163,-0.80322 -0.214857,-0.30675 -0.244484,-0.30899 -4.098053,-0.30899 h -3.881631 l -0.227732,0.34757 c -0.21096,0.32196 -0.21096,0.37316 0,0.69513 l 0.227732,0.34756 h 3.82 c 3.634636,0 3.833497,-0.0135 4.098057,-0.27805 z M 9.6699029,246.38779 c -0.6933163,-0.30066 -1.1025064,-0.72052 -1.477801,-1.51636 -0.323728,-0.68647 -0.3278068,-0.75223 -0.3278068,-5.28297 0,-4.53075 0.00406,-4.5965 0.3278068,-5.28298 0.3816434,-0.80929 0.7915035,-1.22286 1.508997,-1.52265 0.4581871,-0.19144 3.2069631,-0.21517 24.9229271,-0.21517 21.715967,0 24.464744,0.0237 24.922931,0.21517 0.717493,0.29979 1.127353,0.71336 1.508997,1.52265 0.323728,0.68648 0.327807,0.75223 0.327807,5.28298 0,4.53074 -0.0041,4.5965 -0.327807,5.28297 -0.381644,0.8093 -0.791504,1.22286 -1.508997,1.52265 -0.458369,0.19152 -3.201797,0.21458 -24.953221,0.20973 -21.513788,-0.005 -24.496345,-0.0306 -24.9238331,-0.21602 z m 40.2654401,-5.58595 c 0.380714,-0.30839 0.607129,-0.75505 0.607129,-1.1977 0,-1.31345 -1.536583,-1.96189 -2.535026,-1.06978 -0.389801,0.34829 -0.454026,0.4974 -0.454026,1.0541 0,0.5567 0.06423,0.7058 0.454026,1.0541 0.538033,0.48073 1.439152,0.55518 1.927897,0.15928 z m 5.178731,0.0197 c 0.493025,-0.34532 0.727523,-1.02389 0.561557,-1.62497 -0.301045,-1.09029 -1.637383,-1.4488 -2.476966,-0.66452 -0.363952,0.33998 -0.431783,0.50547 -0.431783,1.05339 0,0.90267 0.543046,1.46281 1.418144,1.46281 0.334668,0 0.750112,-0.10137 0.929048,-0.22671 z m -9.859471,-0.87634 c 0.195527,-0.36534 0.181635,-0.50766 -0.07455,-0.76385 -0.328406,-0.3284 -7.854254,-0.3284 -8.182656,0 -0.256189,0.25619 -0.270077,0.39851 -0.07455,0.76385 0.137194,0.25636 0.331771,0.26892 4.165879,0.26892 3.834109,0 4.028686,-0.0126 4.16588,-0.26892 z"
       id="path21"
       inkscape:connector-curvature="0" />
  </g>
</svg>
